<?xml version="1.0" standalone="no"?><!DOCTYPE svg PUBLIC "-//W3C//DTD SVG 1.1//EN" "http://www.w3.org/Graphics/SVG/1.1/DTD/svg11.dtd"><svg t="1619162195664" class="icon" viewBox="0 0 1024 1024" version="1.1" xmlns="http://www.w3.org/2000/svg" p-id="1613" xmlns:xlink="http://www.w3.org/1999/xlink" width="200" height="200"><defs><style type="text/css"></style></defs><path d="M774.6 735c-12.5 0-22.7 10.2-22.7 22.7v68.4H210.6V197.9h541.2v68.4c0 12.5 10.2 22.7 22.7 22.7s22.7-10.2 22.7-22.7v-91.1c0-12.5-10.2-22.7-22.7-22.7H187.9c-12.5 0-22.7 10.2-22.7 22.7v673.6c0 12.5 10.2 22.7 22.7 22.7h586.6c12.5 0 22.7-10.2 22.7-22.7v-91.1c0.1-12.5-10.1-22.7-22.6-22.7z" p-id="1614" fill="#2c2c2c"></path><path d="M858.6 509.9v-0.1c-0.1-0.7-0.2-1.4-0.3-2v-0.1c-0.1-0.7-0.3-1.3-0.5-2v-0.2c-0.2-0.6-0.4-1.3-0.7-1.9 0-0.1-0.1-0.1-0.1-0.2-0.2-0.6-0.5-1.2-0.8-1.8 0-0.1-0.1-0.2-0.1-0.3-0.3-0.6-0.6-1.1-1-1.7-0.1-0.1-0.1-0.2-0.2-0.2-0.4-0.6-0.8-1.1-1.2-1.7l-0.1-0.1c-0.5-0.6-1-1.1-1.5-1.7l-81-81c-8.9-8.9-23.2-8.9-32.1 0-8.9 8.9-8.9 23.2 0 32.1l42.3 42.3H447.4c-12.5 0-22.7 10.2-22.7 22.7s10.2 22.7 22.7 22.7h333.8L739 577c-8.9 8.9-8.9 23.2 0 32.1 8.9 8.9 23.2 8.9 32.1 0l81-81c0.5-0.5 1-1.1 1.5-1.7l0.1-0.1c0.4-0.5 0.8-1.1 1.2-1.7 0.1-0.1 0.1-0.2 0.2-0.2 0.4-0.5 0.7-1.1 1-1.7 0-0.1 0.1-0.2 0.1-0.3 0.3-0.6 0.6-1.2 0.8-1.8 0-0.1 0.1-0.1 0.1-0.2 0.2-0.6 0.5-1.2 0.7-1.9v-0.2c0.2-0.6 0.4-1.3 0.5-2v-0.1c0.1-0.7 0.2-1.4 0.3-2v-0.1c0.1-0.7 0.1-1.4 0.1-2.1 0.1-0.7 0-1.4-0.1-2.1z" p-id="1615" fill="#2c2c2c"></path></svg>