<?xml version="1.0" standalone="no"?><!DOCTYPE svg PUBLIC "-//W3C//DTD SVG 1.1//EN" "http://www.w3.org/Graphics/SVG/1.1/DTD/svg11.dtd"><svg t="1619162175113" class="icon" viewBox="0 0 1024 1024" version="1.1" xmlns="http://www.w3.org/2000/svg" p-id="1244" xmlns:xlink="http://www.w3.org/1999/xlink" width="200" height="200"><defs><style type="text/css"></style></defs><path d="M853.3 257.8H736.7c-10-34-41.4-58.8-78.7-58.8s-68.7 24.8-78.7 58.8H174.7c-12.5 0-22.7 10.2-22.7 22.7s10.2 22.7 22.7 22.7h404.4c9.7 34.5 41.3 59.8 78.9 59.8s69.2-25.3 78.9-59.8h116.4c12.5 0 22.7-10.2 22.7-22.7s-10.2-22.7-22.7-22.7zM658 317.6c-11.8 0-22.4-5.6-29.1-14.4-0.3-0.3-0.5-0.7-0.8-1l-0.2-0.2c-0.2-0.3-0.5-0.7-0.7-1-0.1-0.1-0.1-0.2-0.2-0.3-0.2-0.4-0.4-0.7-0.7-1.1 0 0 0-0.1-0.1-0.1-0.7-1.1-1.3-2.3-1.8-3.5-0.1-0.1-0.1-0.3-0.2-0.4-0.1-0.3-0.3-0.6-0.4-0.9-0.1-0.2-0.2-0.4-0.2-0.6l-0.3-0.9c-0.1-0.2-0.2-0.5-0.2-0.7-0.1-0.3-0.2-0.6-0.3-0.8l-0.3-0.9c-0.1-0.3-0.2-0.6-0.2-0.9-0.1-0.4-0.2-0.9-0.3-1.3 0-0.2-0.1-0.4-0.1-0.6-0.1-0.3-0.1-0.7-0.2-1 0-0.2-0.1-0.5-0.1-0.7 0-0.3-0.1-0.7-0.1-1 0-0.2 0-0.4-0.1-0.7 0-0.4-0.1-0.8-0.1-1.2v-0.6-1.7-1.8-0.6c0-0.4 0.1-0.8 0.1-1.2 0-0.2 0-0.5 0.1-0.7 0-0.4 0.1-0.7 0.1-1 0-0.2 0.1-0.5 0.1-0.7 0.1-0.3 0.1-0.7 0.2-1 0-0.2 0.1-0.5 0.1-0.7 0.1-0.3 0.1-0.7 0.2-1 0.1-0.2 0.1-0.5 0.2-0.7 0.1-0.3 0.2-0.7 0.3-1 0.1-0.2 0.1-0.4 0.2-0.6 0.2-0.5 0.3-1 0.5-1.6 0.1-0.2 0.1-0.4 0.2-0.5 0.1-0.3 0.3-0.7 0.4-1 0.1-0.2 0.2-0.5 0.3-0.7 0.1-0.3 0.2-0.5 0.4-0.8 0.1-0.2 0.2-0.5 0.4-0.7 0.1-0.3 0.3-0.5 0.4-0.7 0.1-0.2 0.3-0.5 0.4-0.7 0.1-0.2 0.3-0.5 0.4-0.7 0.1-0.2 0.3-0.5 0.4-0.7 0.1-0.2 0.3-0.4 0.4-0.7 0.2-0.2 0.3-0.5 0.5-0.7 0.1-0.2 0.3-0.4 0.5-0.6 0.2-0.2 0.3-0.5 0.5-0.7 0.2-0.3 0.5-0.6 0.7-0.9 0.1-0.1 0.2-0.2 0.2-0.3 6.7-8.2 16.9-13.4 28.3-13.4s21.6 5.2 28.3 13.4c0.1 0.1 0.2 0.2 0.2 0.3 0.2 0.3 0.5 0.6 0.7 0.9 0.2 0.2 0.3 0.5 0.5 0.7 0.2 0.2 0.3 0.4 0.5 0.6 0.2 0.2 0.3 0.5 0.5 0.7 0.1 0.2 0.3 0.4 0.4 0.7 0.1 0.2 0.3 0.5 0.4 0.7 0.1 0.2 0.3 0.5 0.4 0.7 0.1 0.2 0.3 0.5 0.4 0.7 0.1 0.2 0.3 0.5 0.4 0.7 0.1 0.2 0.2 0.5 0.4 0.7 0.1 0.3 0.2 0.5 0.4 0.8 0.1 0.2 0.2 0.5 0.3 0.7 0.1 0.3 0.3 0.7 0.4 1 0.1 0.2 0.1 0.4 0.2 0.5 0.2 0.5 0.4 1 0.5 1.6 0.1 0.2 0.1 0.4 0.2 0.6 0.1 0.3 0.2 0.7 0.3 1 0.1 0.2 0.1 0.5 0.2 0.7 0.1 0.3 0.2 0.7 0.2 1 0.1 0.2 0.1 0.5 0.1 0.7 0.1 0.3 0.1 0.7 0.2 1 0 0.2 0.1 0.5 0.1 0.7 0.1 0.3 0.1 0.7 0.1 1 0 0.2 0.1 0.5 0.1 0.7 0 0.4 0.1 0.8 0.1 1.2V283.4c0 0.4-0.1 0.8-0.1 1.2 0 0.2 0 0.4-0.1 0.7 0 0.3-0.1 0.7-0.1 1 0 0.2-0.1 0.5-0.1 0.7-0.1 0.3-0.1 0.7-0.2 1 0 0.2-0.1 0.4-0.1 0.6-0.1 0.4-0.2 0.9-0.3 1.3-0.1 0.3-0.2 0.6-0.2 0.9l-0.3 0.9c-0.1 0.3-0.2 0.6-0.3 0.8-0.1 0.2-0.2 0.5-0.2 0.7l-0.3 0.9c-0.1 0.2-0.2 0.4-0.2 0.6-0.1 0.3-0.3 0.6-0.4 0.9-0.1 0.1-0.1 0.3-0.2 0.4-0.5 1.2-1.1 2.4-1.8 3.5 0 0 0 0.1-0.1 0.1-0.2 0.4-0.4 0.7-0.7 1.1-0.1 0.1-0.1 0.2-0.2 0.3-0.2 0.3-0.5 0.7-0.7 1l-0.2 0.2c-0.3 0.4-0.5 0.7-0.8 1-6.3 8.8-16.9 14.4-28.7 14.4zM853.3 757.8H736.7c-10-34-41.4-58.8-78.7-58.8s-68.7 24.8-78.7 58.8H174.7c-12.5 0-22.7 10.2-22.7 22.7s10.2 22.7 22.7 22.7h404.4c9.7 34.5 41.3 59.8 78.9 59.8s69.2-25.3 78.9-59.8h116.4c12.5 0 22.7-10.2 22.7-22.7s-10.2-22.7-22.7-22.7zM658 817.6c-11.8 0-22.4-5.6-29.1-14.4-0.3-0.3-0.5-0.7-0.8-1-0.1-0.1-0.1-0.2-0.2-0.2-0.2-0.3-0.5-0.7-0.7-1-0.1-0.1-0.1-0.2-0.2-0.3-0.2-0.3-0.4-0.7-0.7-1.1l-0.1-0.1c-0.7-1.1-1.3-2.3-1.8-3.5-0.1-0.1-0.1-0.3-0.2-0.4-0.1-0.3-0.3-0.6-0.4-0.9-0.1-0.2-0.2-0.4-0.2-0.6l-0.3-0.9c-0.1-0.2-0.2-0.5-0.2-0.7-0.1-0.3-0.2-0.6-0.3-0.8l-0.3-0.9c-0.1-0.3-0.2-0.6-0.2-0.9-0.1-0.4-0.2-0.9-0.3-1.3 0-0.2-0.1-0.4-0.1-0.6-0.1-0.3-0.1-0.7-0.2-1 0-0.2-0.1-0.5-0.1-0.7 0-0.3-0.1-0.7-0.1-1 0-0.2 0-0.4-0.1-0.7 0-0.4-0.1-0.8-0.1-1.2v-0.6-1.7-1.8-0.6c0-0.4 0.1-0.8 0.1-1.2 0-0.2 0-0.5 0.1-0.7 0-0.4 0.1-0.7 0.1-1.1 0-0.2 0.1-0.5 0.1-0.7 0.1-0.3 0.1-0.7 0.2-1 0-0.2 0.1-0.5 0.1-0.7 0.1-0.3 0.1-0.7 0.2-1 0.1-0.2 0.1-0.5 0.2-0.7 0.1-0.3 0.2-0.7 0.3-1 0.1-0.2 0.1-0.4 0.2-0.6 0.2-0.5 0.3-1 0.5-1.6 0.1-0.2 0.1-0.4 0.2-0.5 0.1-0.3 0.3-0.7 0.4-1 0.1-0.2 0.2-0.5 0.3-0.7 0.1-0.3 0.2-0.5 0.4-0.8 0.1-0.2 0.2-0.5 0.4-0.7 0.1-0.3 0.3-0.5 0.4-0.7 0.1-0.2 0.3-0.5 0.4-0.7 0.1-0.2 0.3-0.5 0.4-0.7 0.1-0.2 0.3-0.5 0.4-0.7 0.1-0.2 0.3-0.4 0.4-0.7 0.2-0.2 0.3-0.5 0.5-0.7 0.1-0.2 0.3-0.4 0.5-0.6 0.2-0.2 0.3-0.5 0.5-0.7v-0.1c0.3-0.4 0.6-0.8 0.9-1.1 6.7-8.2 16.9-13.4 28.3-13.4s21.6 5.2 28.3 13.4c0.3 0.4 0.6 0.8 0.9 1.1v0.1c0.2 0.2 0.3 0.5 0.5 0.7 0.2 0.2 0.3 0.4 0.5 0.6 0.2 0.2 0.3 0.5 0.5 0.7 0.1 0.2 0.3 0.4 0.4 0.7 0.1 0.2 0.3 0.5 0.4 0.7 0.1 0.2 0.3 0.5 0.4 0.7 0.1 0.2 0.3 0.5 0.4 0.7 0.1 0.2 0.3 0.5 0.4 0.7 0.1 0.2 0.2 0.5 0.4 0.7 0.1 0.3 0.2 0.5 0.4 0.8 0.1 0.2 0.2 0.5 0.3 0.7 0.1 0.3 0.3 0.7 0.4 1 0.1 0.2 0.1 0.4 0.2 0.5 0.2 0.5 0.4 1 0.5 1.6 0.1 0.2 0.1 0.4 0.2 0.6 0.1 0.3 0.2 0.7 0.3 1 0.1 0.2 0.1 0.5 0.2 0.7 0.1 0.3 0.2 0.7 0.2 1 0.1 0.2 0.1 0.5 0.1 0.7 0.1 0.3 0.1 0.7 0.2 1 0 0.2 0.1 0.5 0.1 0.7 0.1 0.3 0.1 0.7 0.1 1.1 0 0.2 0.1 0.5 0.1 0.7 0 0.4 0.1 0.8 0.1 1.2V783.4c0 0.4-0.1 0.8-0.1 1.2 0 0.2 0 0.4-0.1 0.7 0 0.3-0.1 0.7-0.1 1 0 0.2-0.1 0.5-0.1 0.7-0.1 0.3-0.1 0.7-0.2 1 0 0.2-0.1 0.4-0.1 0.6-0.1 0.5-0.2 0.9-0.3 1.3-0.1 0.3-0.2 0.6-0.2 0.9l-0.3 0.9c-0.1 0.3-0.2 0.6-0.3 0.8-0.1 0.2-0.2 0.5-0.2 0.7l-0.3 0.9c-0.1 0.2-0.2 0.4-0.2 0.6-0.1 0.3-0.3 0.6-0.4 0.9-0.1 0.2-0.1 0.3-0.2 0.4-0.5 1.2-1.1 2.3-1.8 3.5l-0.1 0.1c-0.2 0.4-0.4 0.7-0.7 1.1-0.1 0.1-0.1 0.2-0.2 0.3-0.2 0.3-0.5 0.7-0.7 1-0.1 0.1-0.1 0.2-0.2 0.2-0.2 0.3-0.5 0.7-0.8 1-6.3 8.8-16.9 14.4-28.7 14.4zM853.3 507.8H419.7c-10-34-41.4-58.8-78.7-58.8s-68.7 24.8-78.7 58.8h-87.6c-12.5 0-22.7 10.2-22.7 22.7s10.2 22.7 22.7 22.7h87.4c9.7 34.5 41.3 59.8 78.9 59.8s69.2-25.3 78.9-59.8h433.4c12.5 0 22.7-10.2 22.7-22.7s-10.2-22.7-22.7-22.7zM341 567.6c-11.8 0-22.4-5.6-29.1-14.4-0.3-0.3-0.5-0.7-0.8-1l-0.2-0.2c-0.2-0.3-0.5-0.7-0.7-1-0.1-0.1-0.1-0.2-0.2-0.3-0.2-0.3-0.4-0.7-0.7-1.1l-0.1-0.1c-0.7-1.1-1.3-2.3-1.8-3.5-0.1-0.1-0.1-0.3-0.2-0.4-0.1-0.3-0.3-0.6-0.4-0.9-0.1-0.2-0.2-0.4-0.2-0.6l-0.3-0.9c-0.1-0.2-0.2-0.5-0.2-0.7-0.1-0.3-0.2-0.6-0.3-0.8l-0.3-0.9c-0.1-0.3-0.2-0.6-0.2-0.9-0.1-0.4-0.2-0.9-0.3-1.3 0-0.2-0.1-0.4-0.1-0.6-0.1-0.3-0.1-0.7-0.2-1 0-0.2-0.1-0.5-0.1-0.7 0-0.3-0.1-0.7-0.1-1 0-0.2 0-0.4-0.1-0.7 0-0.4-0.1-0.8-0.1-1.2v-0.6-1.7-1.8-0.6c0-0.4 0.1-0.8 0.1-1.2 0-0.2 0-0.5 0.1-0.7 0-0.4 0.1-0.7 0.1-1 0-0.2 0.1-0.5 0.1-0.7 0.1-0.3 0.1-0.7 0.2-1 0-0.2 0.1-0.5 0.1-0.7 0.1-0.3 0.1-0.7 0.2-1 0.1-0.2 0.1-0.5 0.2-0.7 0.1-0.3 0.2-0.7 0.3-1 0.1-0.2 0.1-0.4 0.2-0.6 0.2-0.5 0.3-1 0.5-1.6 0.1-0.2 0.1-0.4 0.2-0.5 0.1-0.3 0.3-0.7 0.4-1 0.1-0.2 0.2-0.5 0.3-0.7 0.1-0.3 0.2-0.5 0.4-0.8 0.1-0.2 0.2-0.5 0.4-0.7 0.1-0.3 0.3-0.5 0.4-0.8 0.1-0.2 0.3-0.5 0.4-0.7 0.1-0.2 0.3-0.5 0.4-0.7 0.1-0.2 0.3-0.5 0.4-0.7 0.1-0.2 0.3-0.4 0.4-0.7 0.2-0.2 0.3-0.5 0.5-0.7 0.1-0.2 0.3-0.4 0.5-0.6 0.2-0.2 0.3-0.5 0.5-0.7 0.2-0.3 0.4-0.6 0.7-0.9l0.3-0.3c6.7-8.2 16.9-13.4 28.3-13.4s21.6 5.2 28.3 13.4l0.3 0.3c0.2 0.3 0.5 0.6 0.7 0.9 0.2 0.2 0.3 0.5 0.5 0.7 0.2 0.2 0.3 0.4 0.5 0.6 0.2 0.2 0.3 0.5 0.5 0.7 0.1 0.2 0.3 0.4 0.4 0.7 0.2 0.2 0.3 0.5 0.4 0.7 0.1 0.2 0.3 0.5 0.4 0.7 0.1 0.2 0.3 0.5 0.4 0.7 0.1 0.2 0.3 0.5 0.4 0.8 0.1 0.2 0.2 0.5 0.4 0.7 0.1 0.3 0.2 0.5 0.4 0.8 0.1 0.2 0.2 0.5 0.3 0.7 0.1 0.3 0.3 0.7 0.4 1 0.1 0.2 0.1 0.4 0.2 0.5 0.2 0.5 0.4 1 0.5 1.6 0.1 0.2 0.1 0.4 0.2 0.6 0.1 0.3 0.2 0.7 0.3 1 0.1 0.2 0.1 0.5 0.2 0.7 0.1 0.3 0.2 0.7 0.2 1 0.1 0.2 0.1 0.5 0.1 0.7 0.1 0.3 0.1 0.7 0.2 1 0 0.2 0.1 0.5 0.1 0.7 0.1 0.3 0.1 0.7 0.1 1 0 0.2 0.1 0.5 0.1 0.7 0 0.4 0.1 0.8 0.1 1.2V533.4c0 0.4-0.1 0.8-0.1 1.2 0 0.2 0 0.4-0.1 0.7 0 0.3-0.1 0.7-0.1 1 0 0.2-0.1 0.5-0.1 0.7-0.1 0.3-0.1 0.7-0.2 1 0 0.2-0.1 0.4-0.1 0.6-0.1 0.5-0.2 0.9-0.3 1.3-0.1 0.3-0.2 0.6-0.2 0.9l-0.3 0.9c-0.1 0.3-0.2 0.6-0.3 0.8-0.1 0.2-0.2 0.5-0.2 0.7l-0.3 0.9c-0.1 0.2-0.2 0.4-0.2 0.6-0.1 0.3-0.3 0.6-0.4 0.9-0.1 0.1-0.1 0.3-0.2 0.4-0.5 1.2-1.1 2.3-1.8 3.5l-0.1 0.1c-0.2 0.4-0.4 0.7-0.7 1.1-0.1 0.1-0.1 0.2-0.2 0.3-0.2 0.3-0.5 0.7-0.7 1-0.1 0.1-0.1 0.2-0.2 0.2-0.2 0.4-0.5 0.7-0.8 1-6.5 8.8-17.1 14.4-28.9 14.4z" p-id="1245" fill="#2c2c2c"></path></svg>